<?xml version="1.0" encoding="utf-8"?>
<!-- Generator: Adobe Illustrator 24.1.2, SVG Export Plug-In . SVG Version: 6.00 Build 0)  -->
<svg version="1.1" id="Слой_1" xmlns="http://www.w3.org/2000/svg" xmlns:xlink="http://www.w3.org/1999/xlink" x="0px" y="0px"
	 viewBox="0 0 750 750" style="enable-background:new 0 0 750 750;" xml:space="preserve">
<g>
	<path d="M294.77,611.63l0.12,0.1c-0.08-0.09-0.14-0.18-0.2-0.26L294.77,611.63z M294.28,610.65v-0.1l-0.04,0.04L294.28,610.65z"/>
	<g>
		<g>
			<g>
				<path d="M415.77,536.53l-0.15-0.03l0.1-0.11C415.72,536.39,415.76,536.48,415.77,536.53z"/>
				<path d="M367.03,640.53h-1.87c0,0-0.01,0-0.03,0l-0.52-0.04c0.16,0.01,0.32,0.01,0.48,0.01
					C365.74,640.52,366.38,640.53,367.03,640.53z"/>
			</g>
		</g>
	</g>
	<path d="M432.19,620.33c4.02-3.95,7.06-8.25,9.3-12.68C439.2,612.06,436.17,616.4,432.19,620.33z M428.58,623.58
		c0,0,0.05-0.05,0.08-0.07c-0.17,0.14-0.33,0.27-0.5,0.4C428.3,623.8,428.45,623.69,428.58,623.58z"/>
	<path d="M415.72,536.39l-0.1,0.11l0.15,0.03C415.76,536.48,415.74,536.43,415.72,536.39z"/>
	<path d="M482.99,527.72l-41.62,21.35c-1.78-3.21-3.9-6.34-6.35-9.4c-4.37-4.8-9.82-9.61-16.37-14.11
		c-0.04-0.03-0.09-0.06-0.13-0.09c-8.19-5.7-15.11-8.84-15.71-9.11l-0.04-0.02c-3.31-1.72-6.91-3.43-10.82-5.04l-22.59-10.51
		c-8.11-3.34-14.49-6.68-19.52-9.62l-0.01-0.01c-0.51-0.3-1-0.59-1.48-0.88c-15.06-8.59-20.69-20.42-21.18-21.51
		c-0.02-0.05-0.04-0.08-0.04-0.08c-2.35-5.72-4.55-13.81-3.41-22.58c0.03-0.24,0.06-0.49,0.1-0.73v-0.01l0.01-0.04
		c0.03-0.31,0.23-2.08,1-4.7l-0.04,0.26c1.65-5.81,4.95-11.76,10.76-17.4c0.96-0.94,1.97-1.82,3.01-2.66
		c2.71-2.16,5.66-3.97,8.76-5.47c0.01-0.01,0.01-0.01,0.01-0.01c1.78-0.91,3.72-1.8,5.85-2.64c0,0,0.04-0.01,0.06-0.02
		c9.43-3.73,22.37-6.49,39.47-5.5c1.7,0.1,3.45,0.23,5.23,0.41c12.5,1.23,27.04,4.43,43.84,10.54c1.38,0.94,2.74,1.91,4.1,2.92h0.01
		c0.02,0.01,0.02,0.01,0.02,0.01l2.85-2.85c0,0-30.01-20.15-72.61-21.46c-5.93-0.18-11.37,0.17-16.34,0.91c0,0-0.02,0-0.06,0.01
		c-0.03,0.01-0.07,0.01-0.13,0.02c-0.03,0-0.07,0.01-0.11,0.01c-0.05,0.01-0.12,0.02-0.2,0.04c0,0-0.03,0-0.04,0.01
		c-0.06,0.01-0.13,0.02-0.19,0.03c-0.13,0.02-0.29,0.05-0.45,0.08c-11.79,1.89-20.86,5.91-27.37,9.89l-0.01,0.01
		c-3.03,1.85-5.5,3.69-7.44,5.29c-2.92,2.43-4.64,4.34-5.21,5.01c0.02-0.02,0.04-0.05,0.04-0.05
		c-10.55,12.3-12.08,28.06-12.08,28.06l0.01,0.01c-0.32,2.11-0.51,4.22-0.56,6.31v0.02l0.72,9.52l0.01,0.04
		c0.17,1.03,0.39,2.06,0.64,3.09c0.7,2.69,1.58,5.14,2.54,7.34l-30.87,32.22l38.46-19.72c0.42,0.54,0.73,0.93,0.9,1.18l0.53,0.52
		l0.52,0.53c2.89,3.15,6.04,6.04,9.52,8.8c3.48,2.76,7.28,5.38,11.49,8.01c5.25,3.15,12.61,6.83,22.06,11.04h0.52l5.32,2.48
		c0,0,0.07,0.03,0.1,0.04l17.17,7.99c0.42,0.19,0.83,0.38,1.24,0.57c1.14,0.52,2.25,1.05,3.35,1.58l-0.06,0.07
		c0,0,0.04,0.02,0.13,0.07c1.7,0.92,19.76,10.86,25.98,22.51c0,0,0.01,0.02,0.01,0.03c0.1,0.2,0.2,0.39,0.3,0.58
		c0.15,0.32,0.31,0.61,0.46,0.88l0.01,0.01c1.36,2.8,2.51,5.93,3.31,9.41c0.02,0.08,0.04,0.17,0.05,0.25
		c0.16,0.77,0.3,1.52,0.44,2.27c0.02,0.13,0.05,0.27,0.07,0.4c0.19,1.09,0.35,2.16,0.49,3.2c0.96,7.35,0.7,13.79-0.53,19.4
		c-5.72,26.19-32.31,34.7-52.6,37.34c-24.43,2.2-48.58-4.96-62.03-10.02c-2.82-1.06-5.16-2.02-6.94-2.79
		c-0.08-0.02-0.15-0.05-0.23-0.08l-0.05-0.02c-0.09-0.03-0.18-0.06-0.26-0.09c-2-0.68-3.51-1.04-4.15-0.86l-0.34,0.32v0.1l0.4,0.81
		l0.01,0.01c0.06,0.08,0.13,0.17,0.2,0.26l4.61,3.59c1.04,1.04,2.08,2.08,3.43,3.13c0.14,0.1,0.27,0.2,0.41,0.3
		c0.18,0.13,0.38,0.27,0.57,0.41c0.03,0.02,0.05,0.04,0.08,0.06c0.4,0.27,0.83,0.55,1.29,0.83c2.22,1.33,4.43,3.03,7.28,4.79
		c0,0.01,0,0.01,0,0.01c0.94,0.79,2.44,1.75,4.61,2.89c40.2,21.28,78.99,10.58,80.99,10l0.08-0.02l-0.33-0.19
		c2.49-0.55,4.87-1.21,7.14-1.94c8.31-2.51,15.08-5.85,20.57-9.75c0.86-0.61,1.71-1.25,2.54-1.92c0.17-0.13,0.33-0.27,0.5-0.4
		c0.45-0.36,0.89-0.74,1.33-1.13c0.31-0.27,0.61-0.54,0.91-0.82c0.2-0.17,0.39-0.35,0.58-0.54c0.24-0.23,0.48-0.46,0.71-0.69
		c3.98-3.94,7-8.27,9.3-12.68c0.3-0.58,0.58-1.16,0.85-1.73c0.47-1.03,0.9-2.06,1.3-3.1l0.01-0.01c0.55-1.29,1.05-2.61,1.5-3.95
		c0.06-0.18,0.12-0.36,0.17-0.54c0.17-0.53,0.32-1.05,0.47-1.57c0.2-0.7,0.39-1.41,0.57-2.12c0.05-0.22,0.11-0.45,0.16-0.67
		c0.06-0.26,0.13-0.51,0.18-0.76l0.02-0.07c2.38-9.49,2.79-18.84,0.66-28.22L482.99,527.72z M415.62,536.5l0.1-0.11
		c0,0,0.04,0.09,0.05,0.14L415.62,536.5z M365.16,640.53c0,0-0.01,0-0.03,0l-0.52-0.04c0.16,0.01,0.32,0.01,0.48,0.01
		c0.64,0.02,1.29,0.03,1.94,0.03H365.16z"/>
	<path d="M294.62,610.23l-0.34,0.32C294.3,610.38,294.42,610.27,294.62,610.23z"/>
	<path d="M294.28,610.65l0.4,0.81C294.43,611.11,294.3,610.85,294.28,610.65z"/>
	<path d="M299.5,615.31c1.04,1.04,2.08,2.08,3.43,3.13c-4.47-3.3-6.98-5.44-8.04-6.71L299.5,615.31z"/>
	<path d="M305.28,620.04c2.22,1.33,4.43,3.03,7.28,4.79c-2.85-1.68-5.72-3.55-8.57-5.62C304.39,619.49,304.82,619.76,305.28,620.04z
		"/>
	<path d="M365.16,640.53c0,0-0.01,0-0.03,0l-0.52-0.04c0.16,0.01,0.32,0.01,0.48,0.01L365.16,640.53z"/>
	<path d="M445.91,421.1L445.91,421.1c-0.01,0-0.02,0-0.02,0C445.91,421.09,445.91,421.1,445.91,421.1z"/>
	<path d="M349.83,491.17c-0.51-0.3-1-0.59-1.48-0.88C348.89,490.61,349.39,490.9,349.83,491.17z"/>
	<path d="M415.77,536.53l-0.15-0.03l0.1-0.11C415.72,536.39,415.76,536.48,415.77,536.53z"/>
	<path d="M405.06,635.58c7.78-2.35,14.21-5.43,19.5-9.01c-8.38,5.74-17.83,9.14-26.31,11.13l-0.33-0.19
		C400.41,636.97,402.79,636.3,405.06,635.58z"/>
	<path d="M425.63,625.84c-0.35,0.25-0.71,0.5-1.07,0.74C424.92,626.33,425.28,626.09,425.63,625.84z"/>
	<path d="M445.15,598.85c-0.76,2.33-1.67,4.7-2.8,7.06c0.47-1.03,0.9-2.06,1.3-3.1l0.01-0.01
		C444.19,601.51,444.7,600.2,445.15,598.85z"/>
	<path d="M365.09,640.5c0.64,0.02,1.29,0.03,1.94,0.03h-1.87c0,0-0.01,0-0.03,0l-0.52-0.04C364.77,640.49,364.93,640.5,365.09,640.5
		z"/>
	<path d="M415.77,536.53l-0.15-0.03l0.1-0.11C415.72,536.39,415.76,536.48,415.77,536.53z"/>
	<path d="M496.83,403.35l99.56,83.91l-63.97-26.35c-23.64-64.37-85.35-110.21-157.58-110.21c-47.91,0-91.19,20.17-121.81,52.54
		L48.41,324.46l209.74,42.12L96.68,227.75l191.1,103.7L156.61,122.22l170.12,196.92L248.65,97.91L349.03,293.5l-26.8-224.22
		l44.61,216.23L375,63.62l8.49,221.89l44.28-216.23l-26.8,224.22L501.51,97.91l-78.24,221.22l170.12-196.92L462.22,331.45
		l191.1-103.7L491.85,366.58l209.74-42.12L496.83,403.35z"/>
	<path d="M247.89,408.95c-13.16,15.24-23.64,32.87-30.69,52.16l-63.42,26.15L247.89,408.95z"/>
	<path d="M429.47,424.65"/>
	<path d="M445.91,421.1v0.01V421.1c-0.01,0-0.02,0-0.02,0C445.91,421.09,445.91,421.1,445.91,421.1z"/>
	<path d="M415.77,536.53l-0.15-0.03l0.1-0.11C415.72,536.39,415.76,536.48,415.77,536.53z"/>
	<path d="M415.77,536.53l-0.15-0.03l0.1-0.11C415.72,536.39,415.76,536.48,415.77,536.53z"/>
	<path d="M232.59,606.37c0.01,0.02,0.02,0.04,0.04,0.07c29.29,48.08,82.1,79.95,142.21,79.95c92.57,0,167.88-75.83,167.88-167.87
		c0-20.46-3.64-40.06-10.3-58.19c-23.64-64.37-85.35-110.21-157.58-110.21c-47.91,0-91.19,20.17-121.81,52.54
		c-1.76,1.86-3.48,3.76-5.15,5.7c-13.16,15.24-23.64,32.87-30.69,52.16c-6.62,18.07-10.23,37.61-10.23,57.99
		c0,26.15,6.28,51.77,17.26,73.74c0.01,0.02,0.02,0.04,0.02,0.04c1.61,2.67,5.22,8.87,7.3,11.46 M265.54,569.24l0.47,1.45
		l-4.65-10.87c-4.7-13.07-7.33-27.2-7.33-41.31c0-55.78,37.76-102.84,88.78-116.99l0.03-0.01c10.2-2.83,20.93-4.34,32-4.34
		c25.11,0,47.6,7.32,66.94,20.4l0.01,0.01c0.03,0.02,0.13,0.13,0.52,0.52c11.5,7.84,21.96,17.78,29.81,28.76
		c14.64,20.4,23.54,44.98,23.54,71.66c0,54.45-36.56,100.47-86.34,115.28l-0.01,0.01c-1.26,0.37-2.53,0.73-3.81,1.06l-0.01,0.01
		c-9.79,2.56-20.07,3.93-30.65,3.93c-0.2,0-0.39,0-0.58-0.01c-29.34-0.14-56.46-11.01-77.55-28.92l-0.01-0.01
		c-12.81-10.88-23.4-24.35-30.9-39.59c-0.09-0.17-0.17-0.33-0.26-0.51C265.54,569.76,265.54,569.76,265.54,569.24
		c-0.52-0.52-0.52-1.05-1.05-2.09c0,0,0,0-0.52-0.52"/>
	<path d="M224.54,592.78l8.09,13.65c0,0,19.75-29.31,46.89-45.12c21.11-12.3,34.54-12.75,34.54-12.75S270.29,538.19,224.54,592.78z"
		/>
</g>
</svg>
